<?xml version="1.0" encoding="utf-8"?>
<!-- Generator: Adobe Illustrator 19.1.0, SVG Export Plug-In . SVG Version: 6.00 Build 0)  -->
<svg version="1.1" id="Layer_1" xmlns="http://www.w3.org/2000/svg" xmlns:xlink="http://www.w3.org/1999/xlink" x="0px" y="0px"
	 viewBox="0 0 120 200" style="enable-background:new 0 0 120 200;" xml:space="preserve">
<style type="text/css">
	.st0{fill:#AA7764;}
	.st1{fill:#E8972D;}
	.st2{fill:#869AB5;}
	.st3{fill:#FCDABE;}
	.st4{fill:#E82C4F;}
	.st5{fill:#E0BA9B;}
	.st6{fill:#425156;}
	.st7{fill:#BF9470;}
	.st8{fill:#FA7D94;}
	.st9{fill:#F5B158;}
	.st10{fill:#BD1837;}
</style>
<g>
	<path class="st0" d="M59.6,4.4c-43.8,0-33.2,58,0,58C92.8,62.4,103.4,4.4,59.6,4.4z"/>
	<path class="st1" d="M45.6,181.4c-3.1,4.6-7.1,7.2-8.1,10.5c-1.6,5.3,4.3,5.3,7.7,4.3c3.3-0.9,5-3.1,6.9-3.7c4.9-1.4,5-4.3,3-11.1
		C53.2,174.6,48.1,177.2,45.6,181.4z"/>
	<path class="st1" d="M73.4,181.4c3.1,4.6,7.1,7.2,8.1,10.5c1.7,5.4-4.6,5.2-7.9,4.2c-3.2-0.9-4.9-3.1-6.7-3.6
		c-4.9-1.4-5-4.3-3-11.1C65.8,174.6,70.9,177.2,73.4,181.4z"/>
	<path class="st2" d="M42.4,122.6h34.4v62.6H62.5v-45.4c0-3.9-5.8-3.9-5.8,0v45.4H42.4L42.4,122.6L42.4,122.6z"/>
	<path class="st3" d="M50.4,81.1L42,107.4c-1.1,3.4-4.7,5.2-8,4.2l0,0c-3.4-1.1-5.2-4.7-4.2-8l8.4-26.3
		C40.7,69.6,52.8,73.9,50.4,81.1z"/>
	<g>
		<path class="st3" d="M38.2,127.6L38.2,127.6c0.8,0.1,1.5,0.9,1.4,1.7l-0.5,3.7c-0.1,0.8-0.9,1.5-1.7,1.4l0,0
			c-0.8-0.1-1.5-0.9-1.4-1.7l0.5-3.7C36.6,128.1,37.3,127.4,38.2,127.6z"/>
		<path class="st3" d="M39.5,129.3l0.2-2.1l-12.4-1.5l-0.2,2.1C26.1,137,38.4,139.9,39.5,129.3z"/>
	</g>
	<path class="st3" d="M39.8,127.2l2.4-19.8c0.4-3.5-2.2-6.7-5.7-7l0,0c-3.5-0.4-6.7,2.2-7,5.7l-2.1,19.8L39.8,127.2z"/>
	<path class="st3" d="M68.9,81.1l8.4,26.3c1.1,3.4,4.7,5.2,8,4.2l0,0c3.4-1.1,5.2-4.7,4.2-8l-8.4-26.3
		C78.6,69.6,66.6,73.9,68.9,81.1z"/>
	<g>
		<path class="st3" d="M81.1,127.6L81.1,127.6c-0.8,0.1-1.5,0.9-1.4,1.7l0.5,3.7c0.1,0.8,0.9,1.5,1.7,1.4l0,0
			c0.8-0.1,1.5-0.9,1.4-1.7l-0.5-3.7C82.8,128.1,82,127.4,81.1,127.6z"/>
		<path class="st3" d="M79.8,129.3l-0.2-2.1l12.4-1.5l0.2,2.1C93.2,137,80.9,139.9,79.8,129.3z"/>
	</g>
	<path class="st3" d="M79.6,127.2l-2.4-19.8c-0.4-3.5,2.2-6.7,5.7-7l0,0c3.5-0.4,6.7,2.2,7,5.7l2.1,19.8L79.6,127.2z"/>
	<rect x="42.4" y="73.2" class="st4" width="34.4" height="54.2"/>
	<path class="st3" d="M59.6,47.6L59.6,47.6c4.3,0,7.8,3.5,7.8,7.8v17.8c0,4.3-3.5,7.8-7.8,7.8l0,0c-4.3,0-7.8-3.5-7.8-7.8V55.4
		C51.8,51.1,55.3,47.6,59.6,47.6z"/>
	<path class="st5" d="M67.3,67.4L67.3,67.4c0,6.7-15.5,6.7-15.5,0l0,0C51.8,60.7,67.3,60.7,67.3,67.4z"/>
	<path class="st3" d="M59.6,6.2c-43.7,0-33.2,63.5,0,63.5C92.8,69.7,103.3,6.2,59.6,6.2z"/>
	<ellipse transform="matrix(-0.9689 0.2474 -0.2474 -0.9689 71.8022 74.9552)" class="st3" cx="31.2" cy="42" rx="4.1" ry="8.1"/>
	<ellipse transform="matrix(-0.9689 -0.2474 0.2474 -0.9689 162.8242 104.4187)" class="st3" cx="88" cy="42" rx="4.1" ry="8.1"/>
	<g>
		<path class="st6" d="M68.7,44.1c1.2,0,2.1-1.7,2.1-3.9c0-2.1-0.9-3.9-2.1-3.9s-2.1,1.7-2.1,3.9C66.6,42.4,67.5,44.1,68.7,44.1z"/>
		<path class="st6" d="M50.5,44.1c1.2,0,2.1-1.7,2.1-3.9c0-2.1-0.9-3.9-2.1-3.9s-2.1,1.7-2.1,3.9S49.4,44.1,50.5,44.1z"/>
	</g>
	<path class="st5" d="M63.8,48.5c-1.6,4.2-6.9,4.1-8.5,0C57.7,50.7,61.3,50.8,63.8,48.5z"/>
	<path class="st0" d="M35.4,42.5c0.5,4.6-0.6,3.3-2.3-0.3c-1.7-3.6-2.9-7.3-2.6-10.9c2.8-34.7,54.4-35.1,58.1,0
		c0.4,3.6-0.9,7.2-2.6,10.9c-1.7,3.6-2.8,5-2.3,0.3c0.6-5.6-0.3-13.8-3.3-18.5c-5.3-8.5-12.2-3.5-21.5-3.5s-13.7-3.8-19.8,4
		C35.5,29.1,34.8,36.5,35.4,42.5z"/>
	<path class="st0" d="M30.6,30.7C27.1-5.8,92-5,88.6,30.7C81.1,8.9,38.1,8.9,30.6,30.7z"/>
	<path class="st7" d="M70.5,54.6c-3.8,6.6-17.3,6.8-21.9,0C55.1,57.2,64.4,57,70.5,54.6z"/>
	<path class="st0" d="M72.9,34.2c11-17.1,3.6-21.7-8.7-26.8C80,5.3,98.8,20.8,72.9,34.2z"/>
	<path class="st0" d="M59.5,33.1C76.3,20,71.2,14.4,61.9,7.4C79,8.7,91.7,26.3,59.5,33.1z"/>
	<path class="st0" d="M47.5,29.3c14.6-8.7,17.2-14.9,9.2-24.6C74.7,10.1,81.1,28.7,47.5,29.3z"/>
	<path class="st0" d="M34.9,27.9c7.8-8.7,11.9-12.4,12.4-21.4C66.2,11.3,79.2,20.3,34.9,27.9z"/>
	<path class="st4" d="M69.8,80.9L74.5,97l12.3-3.3l-4.7-16.3C79.9,69.7,67.7,73.6,69.8,80.9z"/>
	<path class="st4" d="M49.7,80.9L45,97l-12.3-3.3l4.7-16.3C39.7,69.7,51.8,73.6,49.7,80.9z"/>
	<polygon class="st8" points="32.7,93.7 33.4,91.4 42.4,93.8 42.4,96.3 	"/>
	<path class="st9" d="M37.9,190.9c-0.2,0.3-0.3,0.7-0.4,1.1c-1.6,5.3,4,5.2,7.4,4.4c3.6-0.9,5.3-3.2,7.3-3.7
		c2.6-0.8,3.8-1.9,4.1-3.9c-2.8,2.1-6.9,3.9-11.4,5.4C43,192,40.3,190.9,37.9,190.9z"/>
	<path class="st9" d="M43.8,185.2c0.2,0.1,0.5,0.2,0.7,0.3h0.1c1.3-0.1,2.7,0,3.7,0.6c0.2,0.1,0.3,0.4,0.2,0.6
		c-0.1,0.2-0.4,0.3-0.6,0.2c-0.6-0.3-1.5-0.5-2.3-0.5c0.6,0.5,0.9,1.2,1.3,1.7c0.1,0.1,0.2,0.3,0.1,0.5s-0.4,0.3-0.6,0.2
		c-0.6-0.3-1.4-0.5-2.2-0.6c0.5,0.6,0.9,1.2,1.2,1.7c0.1,0.2,0,0.4-0.1,0.6c-0.2,0.1-0.4,0-0.6-0.1c-0.2-0.4-0.5-0.9-0.9-1.3v-1.7
		c0.6,0,1.1,0.1,1.7,0.3c-0.2-0.3-0.5-0.6-0.8-0.8c-0.1-0.1-0.3-0.2-0.4-0.3c-0.2,0-0.3,0-0.5,0.1L43.8,185.2L43.8,185.2z
		 M39.8,188.7c-0.2,0.1-0.4,0.1-0.6-0.1s-0.1-0.4,0.1-0.6c0.3-0.2,0.8-0.4,1.4-0.6l0,0c-0.1,0-0.2,0-0.3-0.1l-0.1-0.1
		c-0.1-0.2-0.1-0.4,0.1-0.6c0.4-0.3,1.1-0.6,2-0.8c-0.1,0-0.1,0-0.2,0c-0.2,0-0.4-0.1-0.4-0.4c0-0.2,0.1-0.4,0.4-0.4
		c0.6-0.1,1.2,0,1.7,0.2v1.2c-0.6,0.1-1.2,0.2-1.7,0.4c0.3,0.1,0.7,0.2,1,0.4c0.2,0,0.5,0,0.7,0v1.7c-0.2-0.2-0.4-0.4-0.6-0.6
		c-0.1-0.1-0.2-0.2-0.4-0.3C41.6,188,40.4,188.3,39.8,188.7z"/>
	<path class="st9" d="M81,190.9c0.2,0.3,0.3,0.7,0.4,1.1c1.6,5.3-4,5.2-7.5,4.4c-3.6-0.9-5.2-3.2-7.2-3.7c-2.6-0.8-3.8-1.9-4.1-3.9
		c2.8,2.1,6.9,3.9,11.4,5.4C75.9,191.9,78.7,190.9,81,190.9z"/>
	<path class="st9" d="M79.1,188.6c0.2,0.1,0.4,0.1,0.6-0.1c0.1-0.2,0.1-0.4-0.1-0.6c-0.3-0.2-0.8-0.4-1.4-0.6l0,0
		c0.1,0,0.2,0,0.3-0.1l0.1-0.1c0.1-0.2,0.1-0.4-0.1-0.6c-0.4-0.3-1.1-0.6-2-0.8c0.1,0,0.1,0,0.2,0c0.2,0,0.4-0.1,0.4-0.4
		c0-0.2-0.1-0.4-0.4-0.4c-0.6-0.1-1.2,0-1.7,0.2v1.2c0.6,0.1,1.2,0.2,1.7,0.4c-0.3,0.1-0.7,0.2-1,0.4c-0.2,0-0.5,0-0.7,0v1.7
		c0.2-0.2,0.4-0.4,0.6-0.6c0.1-0.1,0.2-0.2,0.4-0.3C77.4,187.9,78.6,188.2,79.1,188.6z M75.1,185.1c-0.2,0.1-0.5,0.2-0.7,0.3h-0.1
		c-1.3-0.1-2.7,0-3.7,0.6c-0.2,0.1-0.3,0.4-0.2,0.6c0.1,0.2,0.4,0.3,0.6,0.2c0.6-0.3,1.5-0.5,2.3-0.5c-0.6,0.5-0.9,1.2-1.3,1.7
		c-0.1,0.1-0.2,0.3-0.1,0.5s0.4,0.3,0.6,0.2c0.6-0.3,1.4-0.5,2.2-0.6c-0.5,0.6-0.9,1.2-1.2,1.7c-0.1,0.2,0,0.4,0.1,0.6
		c0.2,0.1,0.4,0,0.6-0.1c0.2-0.4,0.5-0.8,0.9-1.3v-1.7c-0.6,0-1.1,0.1-1.7,0.3c0.2-0.3,0.5-0.6,0.8-0.8c0.1-0.1,0.3-0.2,0.4-0.3
		c0.2,0,0.3,0,0.5,0.1L75.1,185.1L75.1,185.1z"/>
	<polygon class="st4" points="51.8,77.3 59.6,80.9 67.3,77.3 76.8,96.4 42.4,96.3 	"/>
	<polygon class="st8" points="51.4,70.2 48.8,73.2 52,85.4 57.2,79.2 	"/>
	<polygon class="st8" points="68,70.2 70.5,73.2 67.4,85.4 62.1,79.2 	"/>
	<path class="st10" d="M62.7,79.9c-0.9,0.6-1.9,1-3.1,1l2.5-1.7L62.7,79.9L62.7,79.9z M59.6,80.9l-2.4-1.7l-0.7,0.9
		C57.4,80.5,58.6,80.9,59.6,80.9z"/>
	<polygon class="st8" points="86.8,93.7 86.2,91.4 76.8,93.9 76.8,96.4 	"/>
</g>
</svg>
