<?xml version="1.0" encoding="utf-8"?>
<!-- Generator: Adobe Illustrator 19.0.0, SVG Export Plug-In . SVG Version: 6.00 Build 0)  -->
<!DOCTYPE svg PUBLIC "-//W3C//DTD SVG 1.1//EN" "http://www.w3.org/Graphics/SVG/1.1/DTD/svg11.dtd">
<svg version="1.1" id="Layer_1" xmlns="http://www.w3.org/2000/svg" xmlns:xlink="http://www.w3.org/1999/xlink" x="0px" y="0px"
	 viewBox="0 0 960 560" style="enable-background:new 0 0 960 560;" xml:space="preserve">
<style type="text/css">
	.st0{fill:#58595B;}
	.st1{fill:#00BDD6;}
	.st2{fill:#ABE0F9;}
	.st3{fill:#02B1C8;}
	.st4{fill:#0090A3;}
	.st5{fill:#231F20;}
	.st6{fill:#04A6BC;}
</style>
<g>
	<path class="st0" d="M319.8,415.5c0-39.5-32-71.5-71.5-71.5c-39.5,0-71.5,32-71.5,71.5H319.8z"/>
	<path class="st0" d="M797.1,415.5c0-39.5-32-71.5-71.5-71.5c-39.5,0-71.5,32-71.5,71.5H797.1z"/>
	<path class="st1" d="M135,104.2h555.2c4.4,0,9.1,3.4,10.4,7.6L746.5,256c1.3,4.2,5.7,9.1,9.7,10.9l88.1,40c4,1.8,7.3,6.9,7.3,11.3
		v89.2c0,4.4-3.6,8-8,8h-46.5c0-39.5-32-71.5-71.5-71.5c-39.5,0-71.5,32-71.5,71.5H319.8c0-39.5-32-71.5-71.5-71.5
		c-39.5,0-71.5,32-71.5,71.5H135c-4.4,0-8-3.6-8-8V112.2C127,107.8,130.6,104.2,135,104.2z"/>
	<path class="st2" d="M851.6,365.7c-9.3,0-16.8-7.5-16.8-16.8c0-9.3,7.5-16.8,16.8-16.8V365.7z"/>
	<path class="st0" d="M818.5,383.8h43.3c1.8,0,3.2,1.4,3.2,3.2v29.6c0,1.8-1.4,3.2-3.2,3.2h-43.3c-1.8,0-3.2-1.4-3.2-3.2V387
		C815.3,385.2,816.7,383.8,818.5,383.8z"/>
	<path class="st0" d="M97.8,383.8H161c1.8,0,3.2,1.4,3.2,3.2v29.6c0,1.8-1.4,3.2-3.2,3.2H97.8c-1.8,0-3.2-1.4-3.2-3.2V387
		C94.6,385.2,96,383.8,97.8,383.8z"/>
	<path class="st2" d="M659.6,132h9.4c4.4,0,9,3.5,10.2,7.7l34.4,120.6c1.2,4.2-1.4,7.7-5.8,7.7h-48.1c-4.4,0-8-3.6-8-8V140
		C651.6,135.6,655.2,132,659.6,132z"/>
	<polygon class="st3" points="526.4,415.5 596.8,415.5 628.8,365.7 628.8,143.9 526.4,143.9 	"/>
	<path class="st2" d="M552,167.3h53c4.4,0,8,3.6,8,8v53c0,4.4-3.6,8-8,8h-53c-4.4,0-8-3.6-8-8v-53C544,170.9,547.6,167.3,552,167.3z
		"/>
	<rect x="597.8" y="257.4" class="st4" width="15.1" height="30.7"/>
	<path class="st4" d="M661.9,304.9c-2.7,0-4.8,2.2-4.8,4.8c0,2.7,2.1,4.8,4.8,4.8h100.7c2.7,0,4.8-2.1,4.8-4.8
		c0-2.7-2.1-4.8-4.8-4.8H661.9z"/>
	<path class="st5" d="M319.8,410.7c-2.7,0-4.8,2.1-4.8,4.8c0,2.7,2.1,4.8,4.8,4.8h335.9c2.7,0,4.8-2.2,4.8-4.8
		c0-2.7-2.1-4.8-4.8-4.8H319.8z"/>
	<path class="st4" d="M156,304.9c-2.7,0-4.8,2.2-4.8,4.8c0,2.7,2.1,4.8,4.8,4.8h341.4c2.7,0,4.8-2.1,4.8-4.8c0-2.7-2.1-4.8-4.8-4.8
		H156z"/>
	<path class="st4" d="M126.5,96.2c-4.4,0-8,3.6-8,8c0,4.4,3.6,8,8,8h574.5c4.4,0,8-3.6,8-8c0-4.4-3.6-8-8-8H126.5z"/>
	<path class="st5" d="M179.3,96.2v-4.8c0-2.7,2.2-4.8,4.8-4.8h100.7c2.7,0,4.8,2.2,4.8,4.8v4.8H179.3z"/>
	<g>
		<rect x="183.4" y="200.6" class="st4" width="286.5" height="110.7"/>
		<rect x="189.8" y="207" class="st2" width="133.6" height="97.9"/>
		<rect x="329.8" y="207" class="st2" width="133.6" height="97.9"/>
		<g>
			<polygon class="st6" points="472.5,140.8 185.5,140.8 155.9,207.2 497.4,207.2 			"/>
			<path class="st4" d="M279.8,207.2h31.4l5.3-66.4h-26.1L279.8,207.2z M155.9,207.2h30.8l24.9-66.4h-26.1L155.9,207.2z
				 M217.6,207.2H249l15.4-66.4h-26.1L217.6,207.2z M472.5,140.8h-26.7l20.8,66.4h30.8L472.5,140.8z M342.6,140.8v66.4h30.2
				l-5.3-66.4H342.6z M393.6,140.8l10.7,66.4h30.8l-15.4-66.4H393.6z"/>
		</g>
	</g>
</g>
</svg>
