<?xml version="1.0" encoding="utf-8"?>
<!-- Generator: Adobe Illustrator 19.0.0, SVG Export Plug-In . SVG Version: 6.00 Build 0)  -->
<!DOCTYPE svg PUBLIC "-//W3C//DTD SVG 1.1//EN" "http://www.w3.org/Graphics/SVG/1.1/DTD/svg11.dtd">
<svg version="1.1" id="Layer_1" xmlns="http://www.w3.org/2000/svg" xmlns:xlink="http://www.w3.org/1999/xlink" x="0px" y="0px"
	 viewBox="0 0 150 150" style="enable-background:new 0 0 150 150;" xml:space="preserve">
<style type="text/css">
	.st0{fill:#231F20;}
	.st1{fill:#BBBDBF;}
	.st2{fill:#929497;}
</style>
<g id="XMLID_10_">
	<circle id="XMLID_12_" class="st0" cx="74.3" cy="75.5" r="57.8"/>
	<circle id="XMLID_11_" class="st1" cx="74.3" cy="75.5" r="41.3"/>
</g>
<path id="XMLID_2_" class="st2" d="M91.4,85.4c-1.5,2.6-0.6,6,2,7.6c2.6,1.5,6,0.6,7.6-2c1.5-2.6,0.6-6-2-7.6
	C96.3,81.8,92.9,82.7,91.4,85.4z M79.9,50.3c0-3.1-2.5-5.5-5.5-5.5c-3.1,0-5.5,2.5-5.5,5.5c0,3.1,2.5,5.5,5.5,5.5
	C77.4,55.8,79.9,53.3,79.9,50.3z M57.3,65.7c1.5-2.6,0.6-6-2-7.6c-2.6-1.5-6-0.6-7.6,2c-1.5,2.6-0.6,6,2,7.6
	C52.4,69.2,55.7,68.3,57.3,65.7z M68.8,100.8c0,3.1,2.5,5.5,5.5,5.5c3.1,0,5.5-2.5,5.5-5.5c0-3.1-2.5-5.5-5.5-5.5
	C71.3,95.2,68.8,97.7,68.8,100.8z M91.4,65.7c1.5,2.6,4.9,3.6,7.6,2c2.6-1.5,3.6-4.9,2-7.6c-1.5-2.6-4.9-3.6-7.6-2
	C90.8,59.6,89.9,63,91.4,65.7z M47.7,90.9c1.5,2.6,4.9,3.6,7.6,2c2.6-1.5,3.6-4.9,2-7.6c-1.5-2.6-4.9-3.6-7.6-2
	C47.1,84.9,46.2,88.3,47.7,90.9z M65.1,75.5c0,5.1,4.2,9.3,9.3,9.3c5.1,0,9.3-4.2,9.3-9.3s-4.2-9.3-9.3-9.3
	C69.2,66.2,65.1,70.4,65.1,75.5z"/>
</svg>
